Coordinates
version=1
nRows=17
nColumns=40
inDegrees=yes

Units are S.I. units (second, meters, Newtons, ...)
Angles are in degrees.

endheader
time	pelvis_tilt	pelvis_list	pelvis_rotation	pelvis_tx	pelvis_ty	pelvis_tz	hip_flexion_r	hip_adduction_r	hip_rotation_r	knee_angle_r	knee_angle_r_beta	ankle_angle_r	subtalar_angle_r	mtp_angle_r	hip_flexion_l	hip_adduction_l	hip_rotation_l	knee_angle_l	knee_angle_l_beta	ankle_angle_l	subtalar_angle_l	mtp_angle_l	lumbar_extension	lumbar_bending	lumbar_rotation	arm_flex_r	arm_add_r	arm_rot_r	elbow_flex_r	pro_sup_r	wrist_flex_r	wrist_dev_r	arm_flex_l	arm_add_l	arm_rot_l	elbow_flex_l	pro_sup_l	wrist_flex_l	wrist_dev_l
     11.31250000	     -6.93907257	     -3.68052716	     -5.41377698	      1.07897562	      0.92572623	      0.46077087	     21.49489528	      2.50717635	     -2.69957460	     17.46175747	     17.46175747	      6.54769786	      7.24982445	     -3.99712987	      6.41390984	     -9.53472326	    -13.35284291	     19.24700000	     19.24700000	     17.27112482	     -7.99745928	      1.77490069	     -9.81921531	      6.19710392	     -1.15972692	    -17.12486121	    -15.79863278	      2.39403222	     40.89180045	     44.78743417	      0.00000000	      0.00000000	     42.06795216	    -21.77667557	    -11.55654041	     75.07930747	     47.84785812	      0.00000000	      0.00000000
     11.33400000	     -6.94146390	     -3.72852134	     -4.46777602	      1.07993548	      0.92610003	      0.46584355	     21.10132402	      2.67896413	     -3.34236688	     17.54626803	     17.54626803	      6.97583769	      6.76458091	     -4.22337710	      7.06461498	    -10.25673767	    -12.85354371	     20.68312276	     20.68312276	     17.00594683	     -7.30267655	      1.81398258	     -9.80139049	      6.08223874	     -1.25042767	    -15.90604149	    -16.11417079	      2.25345731	     41.00746378	     44.80828957	      0.00000000	      0.00000000	     40.67317657	    -20.79617759	    -11.15957260	     74.27272503	     47.79920581	      0.00000000	      0.00000000
     11.35550000	     -6.86915860	     -3.73632625	     -3.48902523	      1.08088124	      0.92649635	      0.47065645	     20.63600027	      2.79028489	     -3.97083063	     17.61905292	     17.61905292	      7.38567244	      6.29164885	     -4.42743776	      8.06549490	    -10.98451067	    -12.10198473	     22.92013604	     22.92013604	     16.62345194	     -6.94199225	      1.55591352	     -9.81120398	      5.91931974	     -1.34398185	    -14.50857847	    -16.42706722	      2.06335470	     41.13856985	     44.83126047	      0.00000000	      0.00000000	     39.02230233	    -19.75360015	    -10.69516384	     73.29568716	     47.74074486	      0.00000000	      0.00000000
     11.37700000	     -6.69392514	     -3.72485550	     -2.51814310	      1.08185506	      0.92696590	      0.47527181	     20.07354346	      2.88308099	     -4.57572320	     17.71139525	     17.71139525	      7.80908427	      5.83201002	     -4.60968572	      9.39896360	    -11.71549004	    -11.08292999	     26.03641174	     26.03641174	     16.06283073	     -7.00809519	      0.95092298	     -9.89127794	      5.75442059	     -1.38485163	    -12.92459337	    -16.74456925	      1.83319435	     41.31113553	     44.85455663	      0.00000000	      0.00000000	     37.12292433	    -18.69166472	    -10.17693063	     72.15212498	     47.67345649	      0.00000000	      0.00000000
     11.39850000	     -6.56825828	     -3.68179147	     -1.54969130	      1.08283497	      0.92722490	      0.47965330	     19.61394375	      2.97604666	     -4.99180527	     17.86844320	     17.86844320	      8.19457830	      5.04878908	     -4.91474524	     11.20626131	    -12.41747374	     -9.80161196	     29.99736252	     29.99736252	     15.04056876	     -7.45664457	     -0.70730895	     -9.74177882	      5.56963132	     -1.57036840	    -10.72819352	    -16.84651022	      1.23580235	     40.39203888	     44.97511884	      0.00000000	      0.00000000	     35.07201013	    -17.79482190	     -9.39971368	     69.98181317	     47.57551276	      0.00000000	      0.00000000
     11.42000000	     -6.31679095	     -3.65828128	     -0.66327376	      1.08389184	      0.92752185	      0.48379000	     19.05230901	      3.06225752	     -5.54533439	     18.10032487	     18.10032487	      8.69150787	      4.64996293	     -5.06709584	     13.22492687	    -13.00920025	     -8.10857497	     34.76908840	     34.76908840	     13.85967005	     -8.63556507	     -2.02731931	     -9.75746367	      5.43290660	     -1.58867309	     -8.78898855	    -17.14582120	      0.84106442	     40.75770024	     45.00752030	      0.00000000	      0.00000000	     32.61885703	    -16.82563587	     -8.79475054	     68.42478831	     47.49163916	      0.00000000	      0.00000000
     11.44150000	     -5.98061921	     -3.67795074	      0.14439301	      1.08508521	      0.92776375	      0.48772333	     18.41817500	      3.21699286	     -6.01945817	     18.36869719	     18.36869719	      9.21378654	      4.25708508	     -5.15961405	     15.37080490	    -13.51482522	     -6.19974642	     40.14790462	     40.14790462	     12.42091224	    -10.16878471	     -3.44863055	     -9.78557981	      5.35966176	     -1.58769540	     -6.65333420	    -17.44262337	      0.43448141	     41.11894813	     45.03999337	      0.00000000	      0.00000000	     29.98316880	    -15.90136944	     -8.13686226	     66.52770233	     47.39644494	      0.00000000	      0.00000000
     11.46300000	     -5.55064069	     -3.67217844	      0.81131461	      1.08637572	      0.92802905	      0.49148603	     17.74213784	      3.35912851	     -6.42374771	     18.75898751	     18.75898751	      9.89865942	      3.99383424	     -4.88566231	     17.35445470	    -13.78802912	     -4.19567598	     45.61381396	     45.61381396	     10.06337287	    -12.46102758	     -6.23257521	     -9.82320819	      5.26068069	     -1.42021436	     -4.03408204	    -17.51770281	     -0.42155211	     40.48180289	     45.16723127	      0.00000000	      0.00000000	     27.51693102	    -15.03160146	     -7.15371410	     63.47560403	     47.26613552	      0.00000000	      0.00000000
     11.48450000	     -4.99057037	     -3.83053998	      1.31948984	      1.08791737	      0.92824439	      0.49522201	     16.89333365	      3.71734010	     -6.78527404	     19.09012841	     19.09012841	     10.44755900	      3.82564290	     -5.02035156	     19.19794060	    -14.25105837	     -2.44462329	     51.42624747	     51.42624747	      8.66877119	    -13.80740289	     -6.64615604	    -10.02474059	      5.32791195	     -1.01365772	     -1.79143729	    -17.91650568	     -0.76709717	     41.29850713	     45.17291389	      0.00000000	      0.00000000	     24.50423341	    -14.00322935	     -6.59963084	     61.78095669	     47.17646375	      0.00000000	      0.00000000
     11.50600000	     -4.64028063	     -3.77679382	      1.72038159	      1.08931910	      0.92813751	      0.49861040	     16.40395953	      3.83350066	     -6.99096570	     19.66345524	     19.66345524	     11.13669595	      3.63313809	     -4.97906333	     21.04775727	    -14.23293482	     -0.71553415	     56.99158660	     56.99158660	      7.44354734	    -15.37643942	     -5.94085604	     -9.93584873	      5.22529727	     -1.25655067	      1.04629999	    -17.91016644	     -1.27335990	     42.17545208	     45.19370416	      0.00000000	      0.00000000	     21.24372414	    -13.58815695	     -5.98793344	     58.70213871	     47.06262241	      0.00000000	      0.00000000
     11.52750000	     -4.18942388	     -3.95443630	      2.02985839	      1.09084367	      0.92794700	      0.50196919	     15.73854397	      4.22110980	     -7.23773534	     20.09917402	     20.09917402	     11.76956429	      3.55806354	     -4.99675140	     22.54349054	    -14.50783318	      0.75417094	     62.11484311	     62.11484311	      6.45166392	    -16.45210365	     -5.12653295	     -9.98452553	      5.32804280	     -0.89434428	      3.61427886	    -18.07234910	     -1.65692270	     43.00971534	     45.20271622	      0.00000000	      0.00000000	     18.09201847	    -12.79905980	     -5.42414741	     56.26878373	     46.96016509	      0.00000000	      0.00000000
     11.54900000	     -3.79362928	     -4.07180528	      2.25501484	      1.09221175	      0.92751975	      0.50516048	     15.26554687	      4.54138126	     -7.36436523	     20.75911914	     20.75911914	     12.45116939	      3.42403124	     -4.92924895	     23.82043577	    -14.67085646	      1.99956812	     66.61528512	     66.61528512	      6.00052085	    -17.28686148	     -3.29645642	     -9.96762278	      5.39461067	     -0.98467755	      6.62918929	    -17.93771466	     -2.09382061	     44.06182041	     45.20876948	      0.00000000	      0.00000000	     14.84868424	    -12.33287771	     -4.82139870	     53.09200812	     46.84460855	      0.00000000	      0.00000000
     11.57050000	     -3.38373616	     -3.97772907	      2.35868575	      1.09346051	      0.92719462	      0.50808054	     14.88018296	      4.61309616	     -7.37086102	     21.67674045	     21.67674045	     13.69798843	      3.54987263	     -3.34387029	     24.94599002	    -14.54597265	      2.93859733	     70.70980155	     70.70980155	      8.67246550	    -16.73342906	      5.92569457	     -9.93314791	      5.19339308	     -0.51550905	      9.89636662	    -17.54885728	     -2.89078474	     43.64207120	     45.31201920	      0.00000000	      0.00000000	     12.78323907	    -11.35822148	     -3.78737973	     47.18165397	     46.68313380	      0.00000000	      0.00000000
     11.59200000	     -3.05500529	     -4.04223937	      2.52199066	      1.09453619	      0.92632795	      0.51084656	     14.57901835	      4.89771128	     -7.26434655	     22.47525958	     22.47525958	     14.37974293	      3.07914691	     -3.32977526	     25.75396220	    -14.74959606	      3.61740329	     73.33123703	     73.33123703	      8.45111305	    -17.55570610	      6.99900603	     -9.97023740	      5.19086866	     -0.64629123	     12.91754223	    -17.12702640	     -3.28061626	     45.34907525	     45.29054098	      0.00000000	      0.00000000	      9.39372710	    -10.90710997	     -3.23088900	     44.49258924	     46.57167165	      0.00000000	      0.00000000
     11.61350000	     -2.73202109	     -4.09079390	      2.74777296	      1.09526900	      0.92530366	      0.51329122	     14.39804366	      5.17128145	     -7.02922804	     23.45849004	     23.45849004	     15.31860020	      2.38181248	     -2.46161378	     26.57340619	    -14.87249673	      4.25111900	     75.20104911	     75.20104911	      9.58580644	    -17.90042936	     11.10562536	    -10.04118350	      5.17734245	     -0.32704564	     15.97020329	    -16.83573785	     -3.50378363	     46.36311820	     45.30120278	      0.00000000	      0.00000000	      7.15610032	    -10.19925843	     -2.07053407	     39.79817097	     46.39979425	      0.00000000	      0.00000000
     11.63500000	     -2.42558165	     -4.14840726	      3.05398334	      1.09566097	      0.92388880	      0.51540606	     14.29693207	      5.46528814	     -6.74965403	     24.46779147	     24.46779147	     15.99185283	      1.33709501	     -2.10660979	     27.32473718	    -15.08121096	      4.66898310	     76.04477900	     76.04477900	     10.20160196	    -18.41695016	     12.68832040	    -10.22874704	      5.16215479	     -0.36569587	     19.00877614	    -16.41823090	     -3.63382001	     48.11395008	     45.27380737	      0.00000000	      0.00000000	      4.49955067	     -9.64847668	     -1.09722089	     36.47512364	     46.24054789	      0.00000000	      0.00000000
     11.65650000	     -2.14259524	     -4.13316085	      3.47975045	      1.09573271	      0.92220151	      0.51703800	     14.33270542	      5.67718458	     -6.40332799	     25.64631684	     25.64631684	     16.70020284	     -0.03978000	     -1.67633071	     28.12710327	    -15.16315477	      4.98449220	     76.01613546	     76.01613546	     11.12279727	    -18.77715212	     14.51362880	    -10.41963843	      5.12401386	     -0.22407357	     21.93358141	    -16.16807788	     -3.44375617	     49.82448697	     45.23835724	      0.00000000	      0.00000000	      2.27836050	     -9.12853490	      0.30566584	     32.73862317	     46.02264272	      0.00000000	      0.00000000
